<mxfile host="app.diagrams.net" modified="2023-03-01T08:47:01.502Z" agent="5.0 (Windows NT 10.0; Win64; x64) AppleWebKit/537.36 (KHTML, like Gecko) Chrome/109.0.0.0 Safari/537.36 OPR/95.0.0.0" etag="ObL7frc6CB99SPvjJq3w" version="20.8.23" type="github">
  <diagram name="Страница 1" id="pVYLUdCnF0xJzaChqflO">
    <mxGraphModel dx="1009" dy="542" grid="1" gridSize="10" guides="1" tooltips="1" connect="1" arrows="1" fold="1" page="1" pageScale="1" pageWidth="827" pageHeight="1169" math="0" shadow="0">
      <root>
        <mxCell id="0" />
        <mxCell id="1" parent="0" />
        <mxCell id="8SFHe40Xppbr9CI5KLfW-1" style="edgeStyle=orthogonalEdgeStyle;rounded=0;orthogonalLoop=1;jettySize=auto;html=1;entryX=0.5;entryY=0;entryDx=0;entryDy=0;" edge="1" parent="1" source="8SFHe40Xppbr9CI5KLfW-3" target="8SFHe40Xppbr9CI5KLfW-4">
          <mxGeometry relative="1" as="geometry" />
        </mxCell>
        <mxCell id="8SFHe40Xppbr9CI5KLfW-2" style="edgeStyle=orthogonalEdgeStyle;rounded=0;orthogonalLoop=1;jettySize=auto;html=1;entryX=0.5;entryY=0;entryDx=0;entryDy=0;" edge="1" parent="1" source="8SFHe40Xppbr9CI5KLfW-3" target="8SFHe40Xppbr9CI5KLfW-5">
          <mxGeometry relative="1" as="geometry">
            <Array as="points">
              <mxPoint x="335" y="340" />
            </Array>
          </mxGeometry>
        </mxCell>
        <mxCell id="8SFHe40Xppbr9CI5KLfW-3" value="Театр" style="shape=umlActor;verticalLabelPosition=bottom;verticalAlign=top;html=1;outlineConnect=0;fillColor=none;" vertex="1" parent="1">
          <mxGeometry x="385" y="310" width="30" height="60" as="geometry" />
        </mxCell>
        <mxCell id="8SFHe40Xppbr9CI5KLfW-4" value="Добавление спектаклей" style="ellipse;whiteSpace=wrap;html=1;fillColor=none;" vertex="1" parent="1">
          <mxGeometry x="457" y="425" width="86" height="60" as="geometry" />
        </mxCell>
        <mxCell id="8SFHe40Xppbr9CI5KLfW-5" value="Редактирование расписания&amp;nbsp;" style="ellipse;whiteSpace=wrap;html=1;fillColor=none;" vertex="1" parent="1">
          <mxGeometry x="285" y="420" width="100" height="70" as="geometry" />
        </mxCell>
      </root>
    </mxGraphModel>
  </diagram>
</mxfile>
